fd_5_states
version=1
nRows=35
nColumns=17
inDegrees=yes

# SIMM Motion File Header:
name fd_5_states
datacolumns 17
datarows 35
otherdata 1
range 0.165104 0.188633
endheader
time	/jointset/r_shoulder/r_shoulder_elev/value	/jointset/r_shoulder/r_shoulder_elev/speed	/jointset/r_elbow/r_elbow_flex/value	/jointset/r_elbow/r_elbow_flex/speed	/forceset/TRIlong/activation	/forceset/TRIlong/fiber_length	/forceset/TRIlat/activation	/forceset/TRIlat/fiber_length	/forceset/TRImed/activation	/forceset/TRImed/fiber_length	/forceset/BIClong/activation	/forceset/BIClong/fiber_length	/forceset/BICshort/activation	/forceset/BICshort/fiber_length	/forceset/BRA/activation	/forceset/BRA/fiber_length
      0.165104	     -0.015543	     -0.039682	     85.446572	   -255.674042	      0.020000	      0.168244	      0.468448	      0.101397	      0.467306	      0.096458	      0.218027	      0.099642	      0.020000	      0.101015	      0.024425	      0.070228
      0.165687	     -0.015567	     -0.041514	     85.297573	   -255.219765	      0.020000	      0.168195	      0.467908	      0.101347	      0.466644	      0.096408	      0.217893	      0.099767	      0.020000	      0.101139	      0.024390	      0.070292
      0.166270	     -0.015591	     -0.042337	     85.148839	   -254.770148	      0.020000	      0.168146	      0.467377	      0.101296	      0.465994	      0.096358	      0.217762	      0.099892	      0.020000	      0.101263	      0.024356	      0.070345
      0.166853	     -0.015617	     -0.045347	     85.000369	   -254.313298	      0.020000	      0.168097	      0.466855	      0.101246	      0.465355	      0.096308	      0.217631	      0.100016	      0.020000	      0.101387	      0.024322	      0.070404
      0.167677	     -0.015656	     -0.049778	     84.791265	   -253.669366	      0.020000	      0.168029	      0.466135	      0.101175	      0.464474	      0.096237	      0.217450	      0.100192	      0.020000	      0.101561	      0.024275	      0.070481
      0.168273	     -0.015687	     -0.055414	     84.640001	   -253.194695	      0.020000	      0.167979	      0.465624	      0.101124	      0.463849	      0.096186	      0.217321	      0.100319	      0.020000	      0.101687	      0.024241	      0.070546
      0.168870	     -0.015722	     -0.060033	     84.489020	   -252.724782	      0.020000	      0.167929	      0.465123	      0.101073	      0.463236	      0.096135	      0.217193	      0.100445	      0.020000	      0.101812	      0.024207	      0.070599
      0.169467	     -0.015760	     -0.066823	     84.338322	   -252.247822	      0.020000	      0.167880	      0.464631	      0.101022	      0.462634	      0.096085	      0.217067	      0.100571	      0.020000	      0.101937	      0.024173	      0.070659
      0.170296	     -0.015819	     -0.076286	     84.129535	   -251.587061	      0.020000	      0.167811	      0.464002	      0.100951	      0.461869	      0.096014	      0.216893	      0.100746	      0.020000	      0.102111	      0.024127	      0.070736
      0.170907	     -0.015869	     -0.085529	     83.975877	   -251.092543	      0.020000	      0.167761	      0.463821	      0.100899	      0.461680	      0.095963	      0.216759	      0.100874	      0.020000	      0.102238	      0.024094	      0.070801
      0.171519	     -0.015923	     -0.093282	     83.822519	   -250.604660	      0.020000	      0.167710	      0.463669	      0.100847	      0.461528	      0.095911	      0.216625	      0.101003	      0.020000	      0.102366	      0.024060	      0.070855
      0.172130	     -0.015983	     -0.102288	     83.669461	   -250.113359	      0.020000	      0.167660	      0.463519	      0.100795	      0.461378	      0.095859	      0.216493	      0.101131	      0.020000	      0.102493	      0.024027	      0.070915
      0.172965	     -0.016073	     -0.113331	     83.460887	   -249.448602	      0.020000	      0.167592	      0.463319	      0.100724	      0.461178	      0.095788	      0.216316	      0.101305	      0.020000	      0.102665	      0.023982	      0.070991
      0.173592	     -0.016147	     -0.122848	     83.304689	   -248.946424	      0.020000	      0.167540	      0.463172	      0.100671	      0.461032	      0.095735	      0.216185	      0.101435	      0.020000	      0.102795	      0.023949	      0.071057
      0.174219	     -0.016227	     -0.130146	     83.148803	   -248.453514	      0.020000	      0.167489	      0.463028	      0.100618	      0.460888	      0.095682	      0.216056	      0.101565	      0.020000	      0.102924	      0.023916	      0.071112
      0.174846	     -0.016311	     -0.138365	     82.993227	   -247.958335	      0.020000	      0.167438	      0.462886	      0.100565	      0.460746	      0.095629	      0.215928	      0.101695	      0.020000	      0.103052	      0.023883	      0.071173
      0.175687	     -0.016431	     -0.147154	     82.784857	   -247.303504	      0.020000	      0.167370	      0.462700	      0.100493	      0.460561	      0.095558	      0.215759	      0.101868	      0.020000	      0.103225	      0.023840	      0.071249
      0.176330	     -0.016528	     -0.154484	     82.626035	   -246.802263	      0.020000	      0.167317	      0.462561	      0.100439	      0.460422	      0.095504	      0.215632	      0.102000	      0.020000	      0.103356	      0.023807	      0.071315
      0.176973	     -0.016629	     -0.159113	     82.467531	   -246.311968	      0.020000	      0.167265	      0.462425	      0.100385	      0.460286	      0.095450	      0.215507	      0.102132	      0.020000	      0.103486	      0.023774	      0.071370
      0.177616	     -0.016733	     -0.164273	     82.309343	   -245.820793	      0.020000	      0.167213	      0.462292	      0.100331	      0.460153	      0.095396	      0.215383	      0.102264	      0.020000	      0.103617	      0.023742	      0.071432
      0.178464	     -0.016875	     -0.168282	     82.101032	   -245.184267	      0.020000	      0.167145	      0.462119	      0.100260	      0.459981	      0.095325	      0.215223	      0.102437	      0.020000	      0.103789	      0.023699	      0.071508
      0.179124	     -0.016987	     -0.171660	     81.939518	   -244.689845	      0.020000	      0.167092	      0.461988	      0.100205	      0.459850	      0.095270	      0.215100	      0.102571	      0.020000	      0.103921	      0.023667	      0.071574
      0.179783	     -0.017100	     -0.172027	     81.778326	   -244.207364	      0.020000	      0.167039	      0.461860	      0.100150	      0.459722	      0.095215	      0.214979	      0.102704	      0.020000	      0.104054	      0.023635	      0.071630
      0.180442	     -0.017214	     -0.172677	     81.617452	   -243.724832	      0.020000	      0.166986	      0.461657	      0.100095	      0.459514	      0.095161	      0.214865	      0.102837	      0.020000	      0.104186	      0.023603	      0.071693
      0.181102	     -0.017327	     -0.171535	     81.456895	   -243.249692	      0.020000	      0.166934	      0.461218	      0.100040	      0.459053	      0.095106	      0.214769	      0.102970	      0.020000	      0.104318	      0.023571	      0.071752
      0.181898	     -0.017463	     -0.169813	     81.263416	   -242.678183	      0.020000	      0.166870	      0.460678	      0.099974	      0.458485	      0.095040	      0.214657	      0.103130	      0.020000	      0.104477	      0.023533	      0.071826
      0.182660	     -0.017591	     -0.166267	     81.078704	   -242.139134	      0.020000	      0.166810	      0.460173	      0.099911	      0.457955	      0.094978	      0.214551	      0.103282	      0.020000	      0.104629	      0.023497	      0.071893
      0.183422	     -0.017717	     -0.163657	     80.894401	   -241.597614	      0.020000	      0.166749	      0.459681	      0.099849	      0.457437	      0.094915	      0.214447	      0.103434	      0.020000	      0.104780	      0.023462	      0.071967
      0.184184	     -0.017840	     -0.158081	     80.710508	   -241.067655	      0.020000	      0.166689	      0.459199	      0.099786	      0.456931	      0.094853	      0.214344	      0.103586	      0.020000	      0.104930	      0.023427	      0.072030
      0.184946	     -0.017959	     -0.154896	     80.527020	   -240.529953	      0.020000	      0.166629	      0.458729	      0.099724	      0.456437	      0.094791	      0.214243	      0.103737	      0.020000	      0.105080	      0.023392	      0.072106
      0.185618	     -0.018061	     -0.149103	     80.365601	   -240.067369	      0.020000	      0.166576	      0.458323	      0.099669	      0.456010	      0.094736	      0.214156	      0.103869	      0.020000	      0.105212	      0.023362	      0.072159
      0.186290	     -0.018160	     -0.145225	     80.204495	   -239.598565	      0.020000	      0.166523	      0.457925	      0.099615	      0.455592	      0.094682	      0.214069	      0.104002	      0.020000	      0.105344	      0.023332	      0.072221
      0.187208	     -0.018290	     -0.138412	     79.984785	   -238.964225	      0.020000	      0.166451	      0.457395	      0.099540	      0.455035	      0.094608	      0.213953	      0.104182	      0.020000	      0.105523	      0.023291	      0.072300
      0.187920	     -0.018387	     -0.134219	     79.814654	   -238.468789	      0.020000	      0.166395	      0.456993	      0.099483	      0.454613	      0.094550	      0.213865	      0.104322	      0.020000	      0.105662	      0.023260	      0.072367
      0.188633	     -0.018481	     -0.127933	     79.644875	   -237.981557	      0.020000	      0.166340	      0.456600	      0.099425	      0.454200	      0.094493	      0.213777	      0.104461	      0.020000	      0.105800	      0.023229	      0.072426
